<?xml version="1.0" encoding="UTF-8"?>
<svg id="Layer_1" xmlns="http://www.w3.org/2000/svg" viewBox="0 0 2000 2000">
  <defs>
    <style>
      .cls-1 {
        fill: #2cbcdd;
      }

      .cls-2 {
        fill: #25418e;
      }

      .cls-3 {
        fill: #fc5a00;
      }
    </style>
  </defs>
  <path class="cls-1" d="M1164.31,41.34c-248.45,68.09-472.67,509.24-143.11,1043.21-104.29-366.21-66.94-963.59,388.1-1043.21,0,0-244.98,0-244.98,0Z"/>
  <path class="cls-2" d="M1188.66,1089.1c-2.48-35.41-5.44-70.27-8.42-104.2-16.82-191.18-43.57-505.19,144.47-627.16,10.53-6.83,132.3-52.49,132.3-39.81V41.34c-985.46,494.7,188.64,1540.92-855.52,1917.32,608.91-58.02,605.58-606.56,587.17-869.56Z"/>
  <path class="cls-1" d="M891.68,1684.2c-24.83,31.19-55.11,60.56-91.9,88.11-367.74-64.65-647.99-386.22-647.99-772.29S434.6,289.51,804.77,226.98c-5.9,12.41-11.2,25.13-16.35,38-9.23,23.32-17.11,46.93-23.91,71.16C469.12,412.44,250.2,681.03,250.2,1000.03c0,363.21,284.03,661.46,641.48,684.17Z"/>
  <path class="cls-1" d="M974.95,1516.14c-8.93,33.91-21.19,66.62-37.4,97.65-345.03-9.08-608.32-284.78-608.32-613.77,0-267.67,171.84-496.59,416.19-576.38-5.75,35.73-9.08,72.07-9.99,109.01-182.88,77.52-307.79,258.29-307.79,467.37,0,275.7,238.9,514.3,547.31,516.12Z"/>
  <path class="cls-3" d="M1585.99,566.42h231.34l30.88-98.41h-262.22c-117.94,0-220.44,63.13-267.68,164.57-32.7,70.4-21.79,179.56-8.02,317.64,25.28,254.2,59.81,602.12-171.54,863.13,0,0,270.53-132.82,288.26-560.78h174.87l30.89-98.41h-207.57c-3.33-75.55-10.45-147.46-16.96-213.62-11.35-113.4-21.96-220.44-.61-266.46,30.89-66.31,99.16-107.64,178.35-107.64Z"/>
</svg>